<svg version="1.1" id="Layer_1" xmlns="http://www.w3.org/2000/svg" xmlns:xlink="http://www.w3.org/1999/xlink" x="0px" y="0px"
	 width="100%" viewBox="0 0 186 186" enable-background="new 0 0 186 186" xml:space="preserve">
<path fill="#FFFFFF" opacity="1.000000" stroke="none" 
	d="
M130.000000,187.000000 
	C86.695465,187.000000 43.890934,187.000000 1.043202,187.000000 
	C1.043202,125.070518 1.043202,63.140991 1.043202,1.105735 
	C62.887661,1.105735 124.775566,1.105735 186.831726,1.105735 
	C186.831726,62.999619 186.831726,124.999779 186.831726,187.000000 
	C168.141296,187.000000 149.320648,187.000000 130.000000,187.000000 
M81.500015,144.875641 
	C97.313225,144.874741 113.126564,144.911102 128.939560,144.852478 
	C134.382080,144.832291 137.927078,141.902832 137.947525,136.989853 
	C138.055618,111.023338 138.019760,85.056107 137.978271,59.089207 
	C137.971512,54.859024 135.570084,51.888340 131.589417,51.328876 
	C127.258598,50.720196 122.776100,51.190720 118.060547,51.190720 
	C118.060547,53.622322 118.094513,55.437851 118.054337,57.251740 
	C117.920906,63.275864 113.936272,67.748825 107.891800,67.923546 
	C99.243454,68.173523 90.574356,68.214043 81.929375,67.910011 
	C75.062546,67.668510 71.857437,63.919533 71.740501,56.990158 
	C71.708443,55.090408 71.735626,53.189659 71.735626,51.024006 
	C67.512634,51.024006 64.192619,50.964413 60.875496,51.036888 
	C54.703545,51.171738 51.035679,54.813835 51.021751,61.091404 
	C50.967083,85.726624 50.962193,110.362137 51.025440,134.997314 
	C51.041462,141.239441 54.742016,144.793625 61.024960,144.858673 
	C67.516014,144.925873 74.008293,144.874802 81.500015,144.875641 
M111.409424,58.669586 
	C111.534332,55.532131 111.810898,52.391445 111.744156,49.258072 
	C111.667938,45.679844 109.864372,43.923271 106.038460,44.065437 
	C100.567200,44.268753 95.082718,44.115791 89.603882,44.115669 
	C77.535362,44.115406 77.615044,44.113228 77.973793,56.242855 
	C78.070999,59.529446 79.072426,61.120323 82.609314,61.055481 
	C90.575859,60.909428 98.548454,61.090649 106.514763,60.938393 
	C108.005341,60.909901 109.478081,59.948067 111.409424,58.669586 
z"/>
<path fill="#9A9A9A" opacity="1.000000" stroke="none" 
	d="
M81.000031,144.875549 
	C74.008293,144.874802 67.516014,144.925873 61.024960,144.858673 
	C54.742016,144.793625 51.041462,141.239441 51.025440,134.997314 
	C50.962193,110.362137 50.967083,85.726624 51.021751,61.091404 
	C51.035679,54.813835 54.703545,51.171738 60.875496,51.036888 
	C64.192619,50.964413 67.512634,51.024006 71.735626,51.024006 
	C71.735626,53.189659 71.708443,55.090408 71.740501,56.990158 
	C71.857437,63.919533 75.062546,67.668510 81.929375,67.910011 
	C90.574356,68.214043 99.243454,68.173523 107.891800,67.923546 
	C113.936272,67.748825 117.920906,63.275864 118.054337,57.251740 
	C118.094513,55.437851 118.060547,53.622322 118.060547,51.190720 
	C122.776100,51.190720 127.258598,50.720196 131.589417,51.328876 
	C135.570084,51.888340 137.971512,54.859024 137.978271,59.089207 
	C138.019760,85.056107 138.055618,111.023338 137.947525,136.989853 
	C137.927078,141.902832 134.382080,144.832291 128.939560,144.852478 
	C113.126564,144.911102 97.313225,144.874741 81.000031,144.875549 
M95.127251,126.265060 
	C96.252411,126.846199 97.367561,127.906982 98.504364,127.930725 
	C105.957924,128.086395 113.424080,128.196014 120.865807,127.864479 
	C122.263405,127.802208 123.569489,125.686028 124.917793,124.517632 
	C123.470047,123.421646 122.063309,121.448868 120.567566,121.378914 
	C113.457817,121.046402 106.323372,121.186218 99.198708,121.257126 
	C96.569099,121.283287 94.648247,122.295403 95.127251,126.265060 
M118.122269,101.000130 
	C112.301689,101.000458 106.458008,100.707504 100.673294,101.163170 
	C98.698273,101.318741 95.506172,103.115280 95.249825,104.578865 
	C94.642853,108.044243 97.838486,108.011177 100.411316,108.004738 
	C106.564461,107.989357 112.733475,108.249115 118.862015,107.860497 
	C120.920616,107.729958 124.439857,106.154869 124.580147,104.929588 
	C124.970947,101.516304 121.832756,101.054581 118.122269,101.000130 
M111.463005,81.003014 
	C107.316109,81.006615 103.134186,80.705742 99.041023,81.176529 
	C97.579430,81.344643 96.332687,83.380768 94.987869,84.564240 
	C96.363937,85.705856 97.696098,87.765823 99.123466,87.834045 
	C106.239952,88.174202 113.389503,88.169395 120.507645,87.847939 
	C122.010635,87.780060 123.430801,85.878036 124.889137,84.821121 
	C123.558899,83.568024 122.396469,81.573006 120.861328,81.225792 
	C118.175133,80.618233 115.260040,81.022621 111.463005,81.003014 
M78.735893,79.125679 
	C77.425255,80.364235 76.114616,81.602791 74.692459,82.946747 
	C73.432114,81.763947 72.517090,80.330086 71.242538,79.849274 
	C69.503922,79.193382 67.491302,79.263771 65.596161,79.022781 
	C65.915451,80.774498 65.651146,83.018211 66.647034,84.199539 
	C74.127144,93.072495 74.208015,93.010269 82.490456,84.979507 
	C83.443230,84.055687 84.336441,83.070427 85.257233,82.113617 
	C86.963547,80.340576 89.623375,78.317291 86.924179,76.048210 
	C85.890854,75.179543 82.787445,76.679398 80.670319,77.257317 
	C80.113113,77.409424 79.716080,78.148293 78.735893,79.125679 
M68.865578,106.604660 
	C74.890755,112.637177 74.891739,112.638161 80.950424,106.582138 
	C82.594749,104.938545 84.636223,103.518044 85.747780,101.568802 
	C86.699547,99.899765 86.581779,97.620834 86.937035,95.611641 
	C85.065948,96.041206 82.871788,95.998520 81.397057,97.007423 
	C78.990593,98.653778 77.053391,100.986046 74.816452,103.126259 
	C73.396400,101.773613 72.488785,100.316895 71.214302,99.839439 
	C69.475655,99.188095 67.457436,99.282997 65.559082,99.057961 
	C65.896645,100.813301 66.106270,102.608398 66.633339,104.304863 
	C66.851013,105.005463 67.749863,105.494431 68.865578,106.604660 
M82.525650,125.018501 
	C83.813232,123.719940 85.500504,122.619957 86.272842,121.065407 
	C87.004356,119.593040 86.776306,117.643929 86.970261,115.904488 
	C85.235718,116.108917 82.930191,115.688873 81.883675,116.645767 
	C79.596077,118.737457 77.947937,121.528511 75.944565,124.157257 
	C73.295395,121.673347 72.165092,120.043610 70.613235,119.327950 
	C69.220833,118.685822 67.364853,119.048904 65.713387,118.968544 
	C65.837158,120.603882 65.369347,122.653732 66.178642,123.808731 
	C72.448074,132.756302 74.626328,132.921005 82.525650,125.018501 
z"/>
<path fill="#9C9C9C" opacity="1.000000" stroke="none" 
	d="
M111.184235,59.043266 
	C109.478081,59.948067 108.005341,60.909901 106.514763,60.938393 
	C98.548454,61.090649 90.575859,60.909428 82.609314,61.055481 
	C79.072426,61.120323 78.070999,59.529446 77.973793,56.242855 
	C77.615044,44.113228 77.535362,44.115406 89.603882,44.115669 
	C95.082718,44.115791 100.567200,44.268753 106.038460,44.065437 
	C109.864372,43.923271 111.667938,45.679844 111.744156,49.258072 
	C111.810898,52.391445 111.534332,55.532131 111.184235,59.043266 
z"/>
<path fill="#F9F9F9" opacity="1.000000" stroke="none" 
	d="
M95.039703,125.849365 
	C94.648247,122.295403 96.569099,121.283287 99.198708,121.257126 
	C106.323372,121.186218 113.457817,121.046402 120.567566,121.378914 
	C122.063309,121.448868 123.470047,123.421646 124.917793,124.517639 
	C123.569489,125.686028 122.263405,127.802208 120.865807,127.864479 
	C113.424080,128.196014 105.957924,128.086395 98.504364,127.930725 
	C97.367561,127.906982 96.252411,126.846199 95.039703,125.849365 
z"/>
<path fill="#FEFEFE" opacity="1.000000" stroke="none" 
	d="
M118.572723,101.000534 
	C121.832756,101.054581 124.970947,101.516304 124.580147,104.929588 
	C124.439857,106.154869 120.920616,107.729958 118.862015,107.860497 
	C112.733475,108.249115 106.564461,107.989357 100.411316,108.004738 
	C97.838486,108.011177 94.642853,108.044243 95.249825,104.578865 
	C95.506172,103.115280 98.698273,101.318741 100.673294,101.163170 
	C106.458008,100.707504 112.301689,101.000458 118.572723,101.000534 
z"/>
<path fill="#FFFFFF" opacity="1.000000" stroke="none" 
	d="
M111.951935,81.003021 
	C115.260040,81.022621 118.175133,80.618233 120.861328,81.225792 
	C122.396469,81.573006 123.558899,83.568024 124.889137,84.821121 
	C123.430801,85.878036 122.010635,87.780060 120.507645,87.847939 
	C113.389503,88.169395 106.239952,88.174202 99.123466,87.834045 
	C97.696098,87.765823 96.363937,85.705856 94.987869,84.564240 
	C96.332687,83.380768 97.579430,81.344643 99.041023,81.176529 
	C103.134186,80.705742 107.316109,81.006615 111.951935,81.003021 
z"/>
<path fill="#FDFDFD" opacity="1.000000" stroke="none" 
	d="
M78.990692,78.871689 
	C79.716080,78.148293 80.113113,77.409424 80.670319,77.257317 
	C82.787445,76.679398 85.890854,75.179543 86.924179,76.048210 
	C89.623375,78.317291 86.963547,80.340576 85.257233,82.113617 
	C84.336441,83.070427 83.443230,84.055687 82.490456,84.979507 
	C74.208015,93.010269 74.127144,93.072495 66.647034,84.199539 
	C65.651146,83.018211 65.915451,80.774498 65.596161,79.022781 
	C67.491302,79.263771 69.503922,79.193382 71.242538,79.849274 
	C72.517090,80.330086 73.432114,81.763947 74.692459,82.946747 
	C76.114616,81.602791 77.425255,80.364235 78.990692,78.871689 
z"/>
<path fill="#FEFEFE" opacity="1.000000" stroke="none" 
	d="
M68.602242,106.342155 
	C67.749863,105.494431 66.851013,105.005463 66.633339,104.304863 
	C66.106270,102.608398 65.896645,100.813301 65.559082,99.057961 
	C67.457436,99.282997 69.475655,99.188095 71.214302,99.839439 
	C72.488785,100.316895 73.396400,101.773613 74.816452,103.126259 
	C77.053391,100.986046 78.990593,98.653778 81.397057,97.007423 
	C82.871788,95.998520 85.065948,96.041206 86.937035,95.611641 
	C86.581779,97.620834 86.699547,99.899765 85.747780,101.568802 
	C84.636223,103.518044 82.594749,104.938545 80.950424,106.582138 
	C74.891739,112.638161 74.890755,112.637177 68.602242,106.342155 
z"/>
<path fill="#FEFEFE" opacity="1.000000" stroke="none" 
	d="
M82.271065,125.273514 
	C74.626328,132.921005 72.448074,132.756302 66.178642,123.808731 
	C65.369347,122.653732 65.837158,120.603882 65.713387,118.968536 
	C67.364853,119.048904 69.220833,118.685822 70.613235,119.327950 
	C72.165092,120.043610 73.295395,121.673347 75.944565,124.157257 
	C77.947937,121.528511 79.596077,118.737457 81.883675,116.645767 
	C82.930191,115.688873 85.235718,116.108917 86.970261,115.904488 
	C86.776306,117.643929 87.004356,119.593040 86.272842,121.065407 
	C85.500504,122.619957 83.813232,123.719940 82.271065,125.273514 
z"/>
</svg>